<svg xmlns="http://www.w3.org/2000/svg" enable-background="new 0 0 64 64" viewBox="0 0 64 64"><path d="M50.79,27.39c0.59-0.28,0.83-1,0.55-1.58c-1.31-2.71-3.61-4.74-6.45-5.72c-2.84-0.98-5.9-0.8-8.61,0.52
		c-0.59,0.28-0.83,0.99-0.55,1.58c0.29,0.59,1,0.83,1.58,0.55c2.14-1.04,4.55-1.18,6.8-0.41c2.24,0.78,4.05,2.38,5.09,4.52
		c0.2,0.42,0.63,0.67,1.07,0.67C50.45,27.51,50.62,27.47,50.79,27.39z"/><path d="M56.86,60.6l-8.02-16.5c6.98-3.98,9.79-12.77,6.23-20.11c-2.6-5.35-7.92-8.68-13.87-8.68c-2.34,0-4.61,0.52-6.73,1.56
		c-3.7,1.8-6.48,4.93-7.83,8.82c-1.35,3.89-1.1,8.07,0.7,11.78c2.6,5.35,7.92,8.68,13.87,8.68c1.89,0,3.73-0.36,5.48-1.03
		l8.03,16.52c0.2,0.42,0.63,0.67,1.07,0.67c0.17,0,0.35-0.04,0.52-0.12C56.9,61.9,57.15,61.19,56.86,60.6z M41.22,43.78
		c-5.04,0-9.54-2.81-11.74-7.35c-1.52-3.13-1.73-6.67-0.59-9.97c1.14-3.29,3.49-5.94,6.63-7.47c1.8-0.87,3.71-1.32,5.69-1.32
		c5.04,0,9.54,2.82,11.74,7.35c3.14,6.47,0.44,14.29-6.03,17.43C45.11,43.33,43.2,43.78,41.22,43.78z"/><path d="M47.42,61.63h-32.5c-3.05,0-5.53-2.48-5.53-5.53V7.9c0-3.05,2.48-5.53,5.53-5.53h32.5c3.05,0,5.53,2.48,5.53,5.53v6.42
		c0.84,0.6,1.63,1.27,2.37,2V7.9c0-4.36-3.54-7.9-7.9-7.9h-32.5c-4.36,0-7.9,3.55-7.9,7.9V56.1c0,4.36,3.54,7.9,7.9,7.9h32.5
		c1.03,0,2.01-0.22,2.91-0.58l-1.04-2.14C48.7,61.49,48.08,61.63,47.42,61.63z"/></svg>